<svg version="1.1" xmlns="http://www.w3.org/2000/svg" xmlns:xlink="http://www.w3.org/1999/xlink" x="0px" y="0px"
	 viewBox="0 0 3400 2409.5" style="enable-background:new 0 0 3400 2409.5;" xml:space="preserve">
<style type="text/css">
	.st0{display:none;}
	.st1{fill:none;stroke:#000000;stroke-width:2;stroke-miterlimit:10;}
	.st2{fill:none;stroke:#29ABE2;stroke-width:3;stroke-linecap:round;stroke-linejoin:round;stroke-miterlimit:10;}
	.st3{fill:none;stroke:#FF0000;stroke-width:3;stroke-linecap:round;stroke-linejoin:round;stroke-miterlimit:10;}
	.st4{fill:none;}
	.st5{font-family:'HelveticaNeue-Medium';}
	.st6{font-size:12px;}
	.st7{fill:none;stroke:#848484;stroke-width:2;stroke-linecap:round;stroke-linejoin:round;stroke-miterlimit:10;}
	.st8{fill:none;stroke:#0000FF;stroke-width:3;stroke-linecap:round;stroke-linejoin:round;stroke-miterlimit:10;}
	.st9{font-size:24px;}
	.st10{fill:none;stroke:#006837;stroke-width:3;stroke-linecap:round;stroke-linejoin:round;stroke-miterlimit:10;}
</style>
<g id="Подложка" class="st0">
</g>
<g id="БОЛЬШОЙ_ЗАЛ_С_ТАНЦЕВАЛЬНЫМ_ПАРТЕРОМ">
	<g id="ПАРТЕР">
		<g id="Партер_10">
			<path id="Ряд_18_x7C_19-1" class="st1" d="M2485,933.5c-60.9,60.7-125.1,112-189.1,152.4"/>
			<path id="Ряд_17_x7C_19-1" class="st1" d="M2282.8,1065c64.2-40.2,127-89.9,185.2-147.9"/>
			<path id="Ряд_16_x7C_18-1" class="st1" d="M2269.9,1044.7c63.9-39.8,125.1-88.2,181.1-143.9"/>
			<path id="Ряд_15_x7C_18-1" class="st1" d="M2257.3,1024.6c63.2-39.5,122.7-86.7,176.7-140.3"/>
			<path id="Ряд_14_x7C_17-1" class="st1" d="M2244.9,1004.9c62.2-39,120-85.2,172.1-137"/>
			<path id="Ряд_13_x7C_17-1" class="st1" d="M2232.5,985.2c60.9-38.6,117.1-83.7,167.5-133.7"/>
			<path id="Ряд_12_x7C_16-1" class="st1" d="M2219.9,965.2c59.4-37.5,114.6-81.4,163.9-130"/>
			<path id="Ряд_11_x7C_16-1" class="st1" d="M2207.2,945.1c58-36.5,112.1-79.1,160.3-126.4"/>
			<path id="Ряд_10_x7C_15-1" class="st1" d="M2194.6,925c56.6-35.4,109.6-76.8,156.6-122.7"/>
			<path id="Ряд_9_x7C_10-1_1_" class="st1" d="M2182,905c40.1-24.9,78.4-53,113.9-83.5"/>
			<path id="Ряд_9_x7C_3-1_2_" class="st1" d="M2303.1,815.3c10.9-9.6,21.6-19.3,31.9-29.3"/>
			<path id="Контур_19_" class="st2" d="M2339.9,763L2513,933.5l-14.7,14.9c-60.9,60.6-125.4,112.5-191.5,154.3l-16.9,10.7
				l-134.9-213c58.8-34.1,114.2-74.2,164.3-118.8C2327.2,774.8,2334.1,768.5,2339.9,763z"/>
		</g>
		<g id="Партер_9">
			<path id="Ряд_18_x7C_37-20" class="st1" d="M2261.6,1106.6c-69.7,40.2-139.4,69.5-200.2,89"/>
			<path id="Ряд_17_x7C_37-20" class="st1" d="M2248.4,1085.5c-66.1,37.5-132.6,65.7-194.4,85"/>
			<path id="Ряд_16_x7C_35-19" class="st1" d="M2235.5,1065.1c-6.6,3.7-13.1,7.4-19.7,10.9c-56.2,30.1-113.5,53.9-168.6,71.4"/>
			<path id="Ряд_15_x7C_35-19" class="st1" d="M2223,1045.1c-13.3,7.6-26.8,14.8-40.4,21.7c-46.7,23.6-94.6,43.2-141.9,58.5"/>
			<path id="Ряд_14_x7C_33-18" class="st1" d="M2210.6,1025.5c-20.1,11.5-40.5,22.2-61.3,32.2c-37.5,18.1-76.2,33.6-114.9,46.6"
				/>
			<path id="Ряд_13_x7C_33-18" class="st1" d="M2198.3,1006c-26.7,15.4-54.1,29.6-82.3,42.5c-28.6,13.1-58,24.8-87.8,35"/>
			<path id="Ряд_12_x7C_32-17" class="st1" d="M2185.6,985.8c-26.5,15.2-53.7,29.2-81.5,41.9c-27.1,12.3-54.8,23.3-82.6,33"/>
			<path id="Ряд_11_x7C_31-17" class="st1" d="M2172.9,965.7c-26.3,15-53.3,28.8-80.8,41.2c-25.5,11.5-51.5,21.8-77.5,30.9"/>
			<path id="Ряд_10_x7C_30-16" class="st1" d="M2160.2,945.6c-26.1,14.8-52.8,28.4-80,40.5c-24,10.7-48.2,20.3-72.4,28.8"/>
			<path id="Ряд_9_x7C_24-11" class="st1" d="M2147.6,925.4c-25.9,14.6-52.4,28-79.2,39.8c-22.8,10.1-42.7,18.1-67.1,27"/>
			<path id="Контур_14_" class="st2" d="M1978.1,978.7l70.2,242.3l19.5-6.3c68.9-22.1,139.6-53.6,204.3-91l18.1-10.4
				l-135.4-212.8C2098.8,932.6,2039.7,958.9,1978.1,978.7z"/>
		</g>
		<g id="Партер_8">
			<path id="Ряд_13_x7C_49-34" class="st1" d="M1990.2,1095.8c-64.6,19.4-129.9,31.8-191.6,36.2"/>
			<path id="Ряд_12_x7C_48-33" class="st1" d="M1983.4,1073c-63.4,19.2-127,31.3-186.5,35.8"/>
			<path id="Ряд_11_x7C_47-32" class="st1" d="M1976.6,1050.2c-62.3,18.9-124.1,30.9-181.4,35.3"/>
			<path id="Ряд_10_x7C_45-31" class="st1" d="M1793.6,1062.3c55-4.5,115.1-16.2,176.2-34.9"/>
			<path id="Ряд_9_x7C_34-25" class="st1" d="M1963.1,1004.6c-59,18.1-117,29.7-170.5,34.6"/>
			<path id="Контур_15_" class="st2" d="M1771.2,1019.2l8.6,134.4l20.1-1.4c63.2-4.5,128.9-16.9,195.4-36.9l20.2-6.2
				l-37.4-130.4C1911.7,1000,1842.4,1013.8,1771.2,1019.2z"/>
		</g>
		<g id="Партер_7">
			<path id="Ряд_13_x7C_65-50" class="st1" d="M1417.8,1095.8c64.6,19.4,129.9,31.8,191.6,36.2"/>
			<path id="Ряд_12_x7C_64-49" class="st1" d="M1424.6,1073c63.4,19.2,127,31.3,186.5,35.8"/>
			<path id="Ряд_11_x7C_62-48" class="st1" d="M1431.4,1050.2c62.3,18.9,124.1,30.9,181.4,35.3"/>
			<path id="Ряд_10_x7C_60-46" class="st1" d="M1614.4,1062.3c-55-4.5-115.1-16.2-176.2-34.9"/>
			<path id="Ряд_9_x7C_44-35" class="st1" d="M1444.9,1004.6c59,18.1,117,29.7,170.5,34.6"/>
			<path id="Контур_16_" class="st2" d="M1430.8,979l-38.3,130.1l20.2,6.2c66.5,19.9,132.2,32.3,195.4,36.9l20.1,1.4
				l8.6-134.4C1565.9,1013.9,1497,1000.2,1430.8,979z"/>
		</g>
		<g id="Партер_6">
			<path id="Ряд_18_x7C_56-38" class="st1" d="M1146.4,1106.6c69.7,40.2,139.4,69.5,200.2,89"/>
			<path id="Ряд_17_x7C_55-38" class="st1" d="M1159.6,1085.5c66.1,37.5,132.6,65.7,194.4,85"/>
			<path id="Ряд_16_x7C_52-36" class="st1" d="M1172.5,1065.1c6.6,3.7,13.1,7.4,19.7,10.9c56.2,30.1,113.5,53.9,168.6,71.4"/>
			<path id="Ряд_15_x7C_52-36" class="st1" d="M1185,1045.1c13.3,7.6,26.8,14.8,40.4,21.7c46.7,23.6,94.6,43.2,141.9,58.5"/>
			<path id="Ряд_14_x7C_50-34" class="st1" d="M1197.4,1025.5c20.1,11.5,40.5,22.2,61.3,32.2c37.5,18.1,76.2,33.6,114.9,46.6"/>
			<path id="Ряд_13_x7C_81-66" class="st1" d="M1209.7,1006c26.7,15.4,54.1,29.6,82.3,42.5c28.6,13.1,58,24.8,87.8,35"/>
			<path id="Ряд_12_x7C_80-5" class="st1" d="M1222.4,985.8c26.5,15.2,53.7,29.2,81.5,41.9c27.1,12.3,54.8,23.3,82.6,33"/>
			<path id="Ряд_11_x7C_77-63" class="st1" d="M1235.1,965.7c26.3,15,53.3,28.8,80.8,41.2c25.5,11.5,51.5,21.8,77.5,30.9"/>
			<path id="Ряд_10_x7C_75-61" class="st1" d="M1247.8,945.6c26.1,14.8,52.8,28.4,80,40.5c24,10.7,48.2,20.3,72.4,28.8"/>
			<path id="Ряд_9_x7C_58-45" class="st1" d="M1260.4,925.4c25.9,14.6,52.4,28,79.2,39.8c22.8,10.1,42.7,18.1,67.1,27"/>
			<path id="Контур_17_" class="st2" d="M1253.1,900.5l-135.4,212.8l18.1,10.4c64.8,37.4,135.4,68.9,204.3,91l19.5,6.3
				l71.1-242C1368.9,959.2,1309.5,932.7,1253.1,900.5z"/>
		</g>
		<g id="Партер_5">
			<path id="Ряд_18_x7C_75-57" class="st1" d="M923,933.5c60.9,60.7,125.1,112,189.1,152.4"/>
			<path id="Ряд_17_x7C_74-56" class="st1" d="M1125.2,1065c-64.2-40.2-127-89.9-185.2-147.9"/>
			<path id="Ряд_16_x7C_70-53" class="st1" d="M1138.1,1044.7c-63.9-39.8-125.1-88.2-181.1-143.9"/>
			<path id="Ряд_15_x7C_70-53" class="st1" d="M1150.7,1024.6c-63.2-39.5-122.7-86.7-176.7-140.3"/>
			<path id="Ряд_14_x7C_67-51" class="st1" d="M1163.1,1004.9c-62.2-39-120-85.2-172.1-137"/>
			<path id="Ряд_13_x7C_98-82" class="st1" d="M1175.5,985.2c-60.9-38.6-117.1-83.7-167.5-133.7"/>
			<path id="Ряд_12_x7C_96-81" class="st1" d="M1188.1,965.2c-59.4-37.5-114.6-81.4-163.9-130"/>
			<path id="Ряд_11_x7C_93-78" class="st1" d="M1200.8,945.1c-58-36.5-112.1-79.1-160.3-126.4"/>
			<path id="Ряд_10_x7C_90-76" class="st1" d="M1213.4,925c-56.6-35.4-109.6-76.8-156.6-122.7"/>
			<path id="Ряд_9_x7C_68-59" class="st1" d="M1226,905c-40.1-24.9-78.4-53-113.9-83.5"/>
			<path id="Ряд_9_x7C_6-4" class="st1" d="M1104.9,815.3c-10.9-9.6-21.6-19.3-31.9-29.3"/>
			<path id="Контур_18_" class="st2" d="M1068.1,763L895,933.5l14.7,14.9c60.9,60.6,125.4,112.5,191.5,154.3l16.9,10.7
				l134.9-213c-58.8-34.1-114.2-74.2-164.3-118.8C1080.8,774.8,1073.9,768.5,1068.1,763z"/>
		</g>
		<g id="Партер_4">
			<path id="Ряд_8_x7C_25-1" class="st1" d="M2346.8,728.1c-75.4,75.8-170.1,143.8-273.8,192.9"/>
			<path id="Ряд_7_x7C_24-1" class="st1" d="M2327.9,712.7c-73,74.5-164.5,140-264.4,187.2"/>
			<path id="Ряд_6_x7C_23-1" class="st1" d="M2308.9,697.2c-70.6,73.1-158.8,136.2-254.9,181.7"/>
			<path id="Ряд_5_x7C_22-1" class="st1" d="M2290,681.8c-68.2,71.5-153.1,132.4-245.4,176.3"/>
			<path id="Ряд_4_x7C_21-1" class="st1" d="M2271,666.4c-65.7,69.9-147.3,128.5-235.8,171"/>
			<path id="Ряд_3_x7C_21-1" class="st1" d="M2252.6,651.4c-65.6,67.4-143.4,123.3-227.3,164"/>
			<path id="Ряд_2_x7C_20-1" class="st1" d="M2234.2,636.4c-65.3,64.8-139.5,118.1-218.9,156.9"/>
			<path id="Ряд_1_x7C_19-1" class="st1" d="M2005.4,771.2c74.9-37,145.5-87.6,210.4-149.8"/>
			<path id="Контур_20_" class="st3" d="M2214.7,594.6l-12.8,12.3c-64.2,61.6-133.4,110.9-205.8,146.6l-17.3,8.5l83.4,185
				c37.1-16.1,73.2-34.7,108-55.5c69.8-42.1,134.5-92.6,190.6-149l16-16.2L2214.7,594.6z"/>
		</g>
		<g id="Партер_3">
			<path id="Ряд_8_x7C_43-26" class="st1" d="M2036.5,937.4c-59.6,25.2-139.1,51.2-230.2,60.5"/>
			<path id="Ряд_7_x7C_42-25" class="st1" d="M2026.9,916.2c-72.1,30.3-147.7,50.8-223.2,58.5"/>
			<path id="Ряд_6_x7C_40-24" class="st1" d="M2017.5,895.2c-69.9,29.3-143.2,49.1-216.3,56.8"/>
			<path id="Ряд_5_x7C_39-23" class="st1" d="M2008.1,874.4c-67.8,28.4-138.7,47.6-209.4,55.3"/>
			<path id="Ряд_4_x7C_44-23" class="st1" d="M1998.8,853.8c-89.3,37.6-184.3,58.7-276.5,58.3"/>
			<path id="Ряд_3_x7C_43-22" class="st1" d="M1988.9,831.8c-85.7,36.2-176.6,56.5-266.6,56.8"/>
			<path id="Ряд_2_x7C_41-21" class="st1" d="M1979,809.9c-82.1,34.9-168.9,54.3-256.7,55.3"/>
			<path id="Ряд_1_x7C_39-20" class="st1" d="M1969,787.9c-78.4,33.5-161.2,52.2-246.7,53.8"/>
			<path id="Контур_21_" class="st3" d="M1978.4,762.3l-18,7.7c-77.3,32.9-157.6,50.4-238.6,51.9l-17.8,0.3v199.5
				c126.2,0,247-26.5,358.1-74.7L1978.4,762.3z"/>
		</g>
		<g id="Партер_2">
			<path id="Ряд_8_x7C_61-44" class="st1" d="M1371.5,937.4c59.6,25.2,139.1,51.2,230.2,60.5"/>
			<path id="Ряд_7_x7C_60-43" class="st1" d="M1381.1,916.2c72.1,30.3,147.7,50.8,223.2,58.5"/>
			<path id="Ряд_6_x7C_57-41" class="st1" d="M1390.5,895.2c69.9,29.3,143.2,49.1,216.3,56.8"/>
			<path id="Ряд_5_x7C_56-40" class="st1" d="M1399.9,874.4c67.8,28.4,138.7,47.6,209.4,55.3"/>
			<path id="Ряд_4_x7C_66-45" class="st1" d="M1409.2,853.8c89.3,37.6,184.3,58.7,276.5,58.3"/>
			<path id="Ряд_3_x7C_65-44" class="st1" d="M1419.1,831.8c85.7,36.2,176.6,56.5,266.6,56.8"/>
			<path id="Ряд_2_x7C_62-42" class="st1" d="M1429,809.9c82.1,34.9,168.9,54.3,256.7,55.3"/>
			<path id="Ряд_1_x7C_59-40" class="st1" d="M1439,787.9c78.4,33.5,161.2,52.2,246.7,53.8"/>
			<path id="Контур_22_" class="st3" d="M1686.2,821.8c-81-1.5-161.3-19-238.6-51.9l-18-7.7L1345.9,947
				c111.1,48.2,231.8,74.7,358.1,74.7V822.2L1686.2,821.8z"/>
		</g>
		<g id="Партер_1">
			<path id="Ряд_8_x7C_86-62" class="st1" d="M1061.2,728.1c75.4,75.8,170.1,143.8,273.8,192.9"/>
			<path id="Ряд_7_x7C_84-61" class="st1" d="M1080.1,712.7c73,74.5,164.5,140,264.4,187.2"/>
			<path id="Ряд_6_x7C_80-58" class="st1" d="M1099.1,697.2c70.6,73.1,158.8,136.2,254.9,181.7"/>
			<path id="Ряд_5_x7C_78-57" class="st1" d="M1118,681.8c68.2,71.5,153.1,132.4,245.4,176.3"/>
			<path id="Ряд_4_x7C_88-67" class="st1" d="M1137,666.4c65.7,69.9,147.3,128.5,235.8,171"/>
			<path id="Ряд_3_x7C_86-66" class="st1" d="M1155.4,651.4c65.6,67.4,143.4,123.3,227.3,164"/>
			<path id="Ряд_2_x7C_82-63" class="st1" d="M1173.8,636.4c65.3,64.8,139.5,118.1,218.9,156.9"/>
			<path id="Ряд_1_x7C_78-60" class="st1" d="M1402.6,771.2c-74.9-37-145.5-87.6-210.4-149.8"/>
			<path id="Контур_23_" class="st3" d="M1206.1,606.9l-12.8-12.3l-162.1,131.7l16,16.2c56.1,56.4,120.9,106.9,190.6,149
				c34.8,20.8,70.8,39.3,108,55.5l83.4-185l-17.3-8.5C1339.5,717.8,1270.3,668.5,1206.1,606.9z"/>
		</g>
		<g id="Легенда_2_">
			<rect x="1625.8" y="957.9" class="st4" width="156.9" height="19.6"/>
			<text id="Легенда_2" transform="matrix(1 0 0 1 1686.7681 966.4476)" class="st5 st6">Пульт</text>
			<rect x="1625.8" y="805" class="st4" width="156.9" height="19.6"/>
			<text id="Легенда_1" transform="matrix(1 0 0 1 1683.0063 813.5677)" class="st5 st6">Партер</text>
		</g>
		<g id="ВХОД_1_">
			<g id="Вход_3_1_">
				<line class="st7" x1="2530.2" y1="900.5" x2="2511.9" y2="883.5"/>
				<polyline class="st7" points="2511.5,891.3 2511.2,882.8 2519.7,882.5 				"/>
				<polyline class="st7" points="2519.5,899.4 2516.7,902.3 2530.6,915.3 2544.9,899.9 2531,887 2528.3,889.9 				"/>
			</g>
			<g id="Вход_2_1_">
				<line class="st7" x1="1704.2" y1="1089.3" x2="1704.2" y2="1064.3"/>
				<polyline class="st7" points="1698.2,1069.3 1704.2,1063.3 1710.2,1069.3 				"/>
				<polyline class="st7" points="1697.7,1080.7 1693.7,1080.7 1693.7,1099.7 1714.7,1099.7 1714.7,1080.7 1710.7,1080.7 				"/>
			</g>
			<g id="Вход_1_1_">
				<line class="st7" x1="877.3" y1="900.5" x2="895.6" y2="883.5"/>
				<polyline class="st7" points="896,891.3 896.3,882.8 887.8,882.5 				"/>
				<polyline class="st7" points="888,899.4 890.8,902.3 876.9,915.3 862.6,899.9 876.5,887 879.2,889.9 				"/>
			</g>
		</g>
	</g>
	<g id="VIP_ЛОЖА">
		<path id="Контур_24_" class="st8" d="M1704,1156.8c-122.7,0-233.3-18-311.7-46.9l-32.6,111.3
			c196,63.2,344.3,56.8,344.3,56.8s148.3,6.4,344.3-56.8l-32.6-111.3C1937.3,1138.8,1826.7,1156.8,1704,1156.8z"/>
		<rect x="1557.8" y="1204.7" class="st4" width="292.8" height="32.4"/>
		<text id="Легенда_1_" transform="matrix(1 0 0 1 1648.9321 1221.8759)" class="st5 st9">VIP Ложи</text>
	</g>
	<g id="ТАНЦЕВАЛЬНЫЙ_ПАРТЕР">
		<rect x="1557.8" y="620.6" class="st4" width="292.8" height="32.4"/>
		<text id="Легенда" transform="matrix(1 0 0 1 1572.5894 637.6984)" class="st5 st9">Танцевальный партер</text>
		<path id="Контур_25_" class="st10" d="M1983.4,406.7c-59,45.6-188.7,82.6-279.4,83.8c-90.7-1.2-220.3-38.2-279.4-83.8
			l-206.7,167.9c75.1,79.9,156.1,129,234.7,164.2c80.8,36.1,166.3,56.6,251.4,58.2c85.1-1.6,170.6-22.1,251.4-58.2
			c78.6-35.2,159.6-84.3,234.7-164.2L1983.4,406.7z"/>
	</g>
	<g id="БАЛКОН">
		<g id="_x33__этаж_Вход_7_Правая_сторона">
			<path id="Ряд_17_x7C_38-1" class="st1" d="M2813.5,1724.6c185.4-129.7,338.1-290,463.3-456"/>
			<path id="Ряд_16_x7C_38-1" class="st1" d="M2796.4,1700.1c182.2-127.5,332.6-284.9,455.7-448.3"/>
			<path id="Ряд_15_x7C_37-1" class="st1" d="M3227.4,1234.9c-120.9,160.8-269,315.4-448,440.7"/>
			<path id="Ряд_14_x7C_37-1" class="st1" d="M3202.8,1218.1c-118.7,158.2-264.5,309.9-440.4,433.1"/>
			<path id="Ряд_13_x7C_37-1" class="st1" d="M2745.3,1626.7c172.8-121,316.3-269.8,432.8-425.4"/>
			<path id="Ряд_12_x7C_36-1" class="st1" d="M3153.4,1184.4c-114.3,153.1-255.5,299-425.2,417.8"/>
			<path id="Ряд_11_x7C_36-1" class="st1" d="M3128.8,1167.6c-112.2,150.5-251,293.6-417.5,410.2"/>
			<path id="Ряд_10_x7C_35-1" class="st1" d="M2694.2,1553.3c163.4-114.4,299.9-254.6,409.9-402.5"/>
			<path id="Ряд_9_x7C_34-1" class="st1" d="M3079.4,1133.9c-107.8,145.3-242,282.7-402.3,394.9"/>
			<path id="Ряд_8_x7C_34-1" class="st1" d="M3054.7,1117.1c-105.6,142.7-237.5,277.2-394.7,387.3"/>
			<path id="Ряд_7_x7C_33-1" class="st1" d="M2643,1479.9c154-107.9,283.6-239.5,387.1-379.6"/>
			<path id="Ряд_6_x7C_29-1" class="st1" d="M2661.7,1429.7c135.3-100.6,250.5-219.7,343.7-346.3"/>
			<path id="Ряд_5_x7C_29-1" class="st1" d="M2644.7,1405.2c132.2-98.3,245-214.6,336.1-338.6"/>
			<path id="Ряд_4_x7C_28-1" class="st1" d="M2627.7,1380.7c129.2-96.1,239.6-209.6,328.4-330.9"/>
			<path id="Ряд_3_x7C_28-1" class="st1" d="M2610.7,1356.2c126.1-93.9,234.1-204.5,320.7-323.3"/>
			<path id="Ряд_2_x7C_27-1" class="st1" d="M2593.7,1331.7c123-91.6,228.6-199.5,313.1-315.6"/>
			<path id="Ряд_1_x7C_24-1" class="st1" d="M2604.1,1284.5c108.2-84.7,202-180.5,277.9-285.3"/>
			<path id="Контур" class="st2" d="M2808.5,1752.5l16.4-11.5c169.8-118.6,327.5-273.8,468.9-461.1l12.6-16.7l-428.2-292.3
				l-11.4,15.9c-38.4,53.8-90.7,114.1-147.1,170c-63.1,62.5-129.1,117.1-190.8,157.8l-17.1,11.3L2808.5,1752.5z"/>
		</g>
		<g id="_x33__этаж_Вход_6_Правая_сторона">
			<path id="Ряд_17_x7C_69-39" class="st1" d="M2780.5,1747.2c-157.7,105.3-332.9,189.2-523,246.5"/>
			<path id="Ряд_16_x7C_71-39" class="st1" d="M2249.7,1964.9c185.9-56.1,359.2-139,513.8-242.2"/>
			<path id="Ряд_15_x7C_70-38" class="st1" d="M2746.4,1698.2c-151.8,101.3-321.9,182.8-504.5,238"/>
			<path id="Ряд_14_x7C_69-38" class="st1" d="M2729.3,1673.8c-149,99.4-316,179.4-495.2,233.7"/>
			<path id="Ряд_13_x7C_69-38" class="st1" d="M2226.3,1878.7c175.9-53.3,339.7-131.9,486-229.4"/>
			<path id="Ряд_12_x7C_67-37" class="st1" d="M2695.2,1624.8c-143.5,95.6-304.2,172.8-476.7,225.2"/>
			<path id="Ряд_11_x7C_67-37" class="st1" d="M2678.2,1600.3c-140.8,93.7-298.3,169.4-467.5,220.9"/>
			<path id="Ряд_10_x7C_65-36" class="st1" d="M2202.9,1792.5c165.8-50.6,320.2-124.8,458.2-216.6"/>
			<path id="Ряд_9_x7C_63-35" class="st1" d="M2644.1,1551.4c-135.2,90-286.5,162.7-449,212.4"/>
			<path id="Ряд_8_x7C_63-35" class="st1" d="M2627,1526.9c-132.5,88.1-280.5,159.4-439.7,208.1"/>
			<path id="Ряд_7_x7C_61-34" class="st1" d="M2610,1502.5c-129.7,86.2-274.6,156-430.4,203.9"/>
			<path id="Ряд_6_x7C_54-30" class="st1" d="M2171.8,1677.6c136.5-42,264.4-101.2,380.8-173.6"/>
			<path id="Ряд_5_x7C_53-30" class="st1" d="M2535.6,1479.4c-113.6,70.6-238.4,128.4-371.6,169.4"/>
			<path id="Ряд_4_x7C_51-29" class="st1" d="M2156.2,1620.1c129.8-40.1,251.5-96.5,362.3-165.2"/>
			<path id="Ряд_3_x7C_51-29" class="st1" d="M2501.5,1430.4c-108.1,66.9-226.6,121.8-353.1,161"/>
			<path id="Ряд_2_x7C_49-28" class="st1" d="M2140.6,1562.6c123.2-38.3,238.6-91.7,343.9-156.8"/>
			<path id="Ряд_1_x7C_43-25" class="st1" d="M2144.7,1529.8c89.6-30.8,220.6-91.1,309.4-143.3"/>
			<path id="Контур_1_" class="st2" d="M2243.8,2018.7l19.7-5.9c188-56.6,365.8-140.4,528.4-249l17-11.3L2511.8,1326
				l-16.9,10.9c-86.4,58.9-258.1,141.9-367.4,177.6l-18,5.9L2243.8,2018.7z"/>
		</g>
		<g id="_x33__этаж_Вход_5_Центр_1_">
			<path id="Ряд_17_x7C_99-70" class="st1" d="M1722.3,2076c171.7-2,338.5-27,496.7-71.2"/>
			<path id="Ряд_16_x7C_101-72" class="st1" d="M2211.2,1976.1c-155.7,43.5-319.9,68.1-488.9,70.1"/>
			<path id="Ряд_15_x7C_100-71" class="st1" d="M1722.3,2016.3c166.4-1.9,327.9-26.2,481.2-69"/>
			<path id="Ряд_14_x7C_98-70" class="st1" d="M2195.7,1918.6c-150.7,42.1-309.6,66-473.4,67.9"/>
			<path id="Ряд_13_x7C_98-70" class="st1" d="M2187.9,1889.9c-148.1,41.4-304.4,64.9-465.6,66.8"/>
			<path id="Ряд_12_x7C_95-68" class="st1" d="M2180.1,1861.2c-145.6,40.7-299.2,63.8-457.8,65.7"/>
			<path id="Ряд_11_x7C_95-68" class="st1" d="M2172.3,1832.5c-143.1,40-294.1,62.8-450,64.6"/>
			<path id="Ряд_10_x7C_93-66" class="st1" d="M2164.5,1803.8c-140.6,39.3-288.9,61.7-442.2,63.5"/>
			<path id="Ряд_9_x7C_90-64" class="st1" d="M2156.7,1775c-138,38.6-283.8,60.6-434.4,62.4"/>
			<path id="Ряд_8_x7C_90-64" class="st1" d="M2149,1746.3c-135.5,38-278.6,59.6-426.7,61.3"/>
			<path id="Ряд_7_x7C_87-62" class="st1" d="M2141.2,1717.6c-133,37.3-273.4,58.5-418.9,60.2"/>
			<path id="Ряд_6_x7C_76-55" class="st1" d="M2133.4,1688.9c-116.5,32.7-238.8,52.8-365.4,57.9"/>
			<path id="Ряд_5_x7C_75-54" class="st1" d="M2125.6,1660.2c-113.9,32-233.7,51.7-357.6,56.8"/>
			<path id="Ряд_4_x7C_72-52" class="st1" d="M2117.8,1631.4c-111.4,31.3-228.5,50.7-349.8,55.7"/>
			<path id="Ряд_3_x7C_72-52" class="st1" d="M2110,1602.7c-108.9,30.6-223.4,49.6-342,54.6"/>
			<path id="Ряд_2_x7C_69-50" class="st1" d="M1768,1627.5c116-5,227.9-23.5,334.2-53.5"/>
			<path id="Ряд_1_x7C_60-44" class="st1" d="M1786.5,1596.2c97.7-7.4,204.4-23.5,293.2-46.8"/>
			<path id="Контур_2_" class="st2" d="M1704,1580.5l15.7-0.5c21.1-0.7,43.1-2,65.4-3.7c101.4-7.6,207-24.5,289.7-46.2
				c4.9-1.3,9.7-2.6,14.4-3.9l20.3-5.8l134.1,498.3l-19.1,5.3c-164,45.7-332.8,69.9-501.9,71.9l-18.5,0.2V1580.5z"/>
		</g>
		<g id="_x33__этаж_Вход_3_Центр">
			<path id="Ряд_17_x7C_129-100" class="st1" d="M1685.7,2076c-171.7-2-338.5-27-496.7-71.2"/>
			<path id="Ряд_16_x7C_130-102" class="st1" d="M1196.8,1976.1c155.7,43.5,319.9,68.1,488.9,70.1"/>
			<path id="Ряд_15_x7C_129-101" class="st1" d="M1685.7,2016.3c-166.4-1.9-327.9-26.2-481.2-69"/>
			<path id="Ряд_14_x7C_127-99" class="st1" d="M1212.3,1918.6c150.7,42.1,309.6,66,473.4,67.9"/>
			<path id="Ряд_13_x7C_126-99" class="st1" d="M1220.1,1889.9c148.1,41.4,304.4,64.9,465.6,66.8"/>
			<path id="Ряд_12_x7C_122-96" class="st1" d="M1227.9,1861.2c145.6,40.7,299.2,63.8,457.8,65.7"/>
			<path id="Ряд_11_x7C_122-96" class="st1" d="M1235.7,1832.5c143.1,40,294.1,62.8,450,64.6"/>
			<path id="Ряд_10_x7C_120-94" class="st1" d="M1243.5,1803.8c140.6,39.3,288.9,61.7,442.2,63.5"/>
			<path id="Ряд_8_x7C_116-91" class="st1" d="M1259,1746.3c135.5,38,278.6,59.6,426.7,61.3"/>
			<path id="Ряд_9_x7C_116-91" class="st1" d="M1251.3,1775c138,38.6,283.8,60.6,434.4,62.4"/>
			<path id="Ряд_7_x7C_112-88" class="st1" d="M1266.8,1717.6c133,37.3,273.4,58.5,418.9,60.2"/>
			<path id="Ряд_6_x7C_97-77" class="st1" d="M1274.6,1688.9c116.5,32.7,238.8,52.8,365.4,57.9"/>
			<path id="Ряд_5_x7C_96-76" class="st1" d="M1282.4,1660.2c113.9,32,233.7,51.7,357.6,56.8"/>
			<path id="Ряд_4_x7C_92-73" class="st1" d="M1290.2,1631.4c111.4,31.3,228.5,50.7,349.8,55.7"/>
			<path id="Ряд_3_x7C_92-72" class="st1" d="M1298,1602.7c108.9,30.6,223.4,49.6,342,54.6"/>
			<path id="Ряд_2_x7C_88-70" class="st1" d="M1640,1627.5c-116-5-227.9-23.5-334.2-53.5"/>
			<path id="Ряд_1_x7C_77-61" class="st1" d="M1621.5,1596.2c-97.7-7.4-204.4-23.5-293.2-46.8"/>
			<path id="Контур_3_" class="st2" d="M1704,1580.5l-15.7-0.5c-21.1-0.7-43.1-2-65.4-3.7c-101.4-7.6-207-24.5-289.7-46.2
				c-4.9-1.3-9.7-2.6-14.4-3.9l-20.3-5.8l-134.1,498.3l19.1,5.3c164,45.7,332.8,69.9,501.9,71.9l18.5,0.2V1580.5z"/>
		</g>
		<g id="_x33__этаж_Вход_2_Левая_сторонва">
			<path id="Ряд_17_x7C_162-130" class="st1" d="M627.5,1747.2c157.7,105.3,332.9,189.2,523,246.5"/>
			<path id="Ряд_16_x7C_164-131" class="st1" d="M1158.3,1964.9c-185.9-56.1-359.2-139-513.8-242.2"/>
			<path id="Ряд_15_x7C_163-130" class="st1" d="M661.6,1698.2c151.8,101.3,321.9,182.8,504.5,238"/>
			<path id="Ряд_14_x7C_161-128" class="st1" d="M678.7,1673.8c149,99.4,316,179.4,495.2,233.7"/>
			<path id="Ряд_13_x7C_159-127" class="st1" d="M1181.7,1878.7c-175.9-53.3-339.7-131.9-486-229.4"/>
			<path id="Ряд_12_x7C_154-123" class="st1" d="M712.8,1624.8c143.5,95.6,304.2,172.8,476.7,225.2"/>
			<path id="Ряд_11_x7C_154-123" class="st1" d="M729.8,1600.3c140.8,93.7,298.3,169.4,467.5,220.9"/>
			<path id="Ряд_10_x7C_151-121" class="st1" d="M1205.1,1792.5c-165.8-50.6-320.2-124.8-458.2-216.6"/>
			<path id="Ряд_9_x7C_147-117" class="st1" d="M763.9,1551.4c135.2,90,286.5,162.7,449,212.4"/>
			<path id="Ряд_8_x7C_146-117" class="st1" d="M781,1526.9c132.5,88.1,280.5,159.4,439.7,208.1"/>
			<path id="Ряд_7_x7C_141-113" class="st1" d="M798,1502.5c129.7,86.2,274.6,156,430.4,203.9"/>
			<path id="Ряд_6_x7C_123-98" class="st1" d="M1236.2,1677.6c-136.5-42-264.4-101.2-380.8-173.6"/>
			<path id="Ряд_5_x7C_121-97" class="st1" d="M872.4,1479.4c113.6,70.6,238.4,128.4,371.6,169.4"/>
			<path id="Ряд_4_x7C_116-93" class="st1" d="M1251.8,1620.1c-129.8-40.1-251.5-96.5-362.3-165.2"/>
			<path id="Ряд_3_x7C_116-93" class="st1" d="M906.5,1430.4c108.1,66.9,226.6,121.8,353.1,161"/>
			<path id="Ряд_2_x7C_111-89" class="st1" d="M1267.4,1562.6c-123.2-38.3-238.6-91.7-343.9-156.8"/>
			<path id="Ряд_1_x7C_97-78" class="st1" d="M1263.3,1529.8c-89.6-30.8-220.6-91.1-309.4-143.3"/>
			<path id="Контур_4_" class="st2" d="M1164.2,2018.7l-19.7-5.9c-188-56.6-365.8-140.4-528.4-249l-17-11.3L896.2,1326
				l16.9,10.9c86.4,58.9,258.1,141.9,367.4,177.6l18,5.9L1164.2,2018.7z"/>
		</g>
		<g id="_x33__этаж_Вход_1_Левая_сторонва">
			<path id="Ряд_17_x7C_198-163" class="st1" d="M594.5,1724.6c-185.4-129.7-338.1-290-463.3-456"/>
			<path id="Ряд_16_x7C_203-165" class="st1" d="M611.6,1700.1c-182.2-127.5-332.6-284.9-455.7-448.3"/>
			<path id="Ряд_15_x7C_201-164" class="st1" d="M180.6,1234.9c120.9,160.8,269,315.4,448,440.7"/>
			<path id="Ряд_14_x7C_198-162" class="st1" d="M205.2,1218.1c118.7,158.2,264.5,309.9,440.4,433.1"/>
			<path id="Ряд_13_x7C_196-160" class="st1" d="M662.7,1626.7c-172.8-121-316.3-269.8-432.8-425.4"/>
			<path id="Ряд_12_x7C_190-155" class="st1" d="M254.6,1184.4c114.3,153.1,255.5,299,425.2,417.8"/>
			<path id="Ряд_11_x7C_189-155" class="st1" d="M279.2,1167.6c112.2,150.5,251,293.6,417.5,410.2"/>
			<path id="Ряд_10_x7C_186-152" class="st1" d="M713.8,1553.3c-163.4-114.4-299.9-254.6-409.9-402.5"/>
			<path id="Ряд_8_x7C_180-147" class="st1" d="M353.3,1117.1c105.6,142.7,237.5,277.2,394.7,387.3"/>
			<path id="Ряд_9_x7C_181-148" class="st1" d="M328.6,1133.9c107.8,145.3,242,282.7,402.3,394.9"/>
			<path id="Ряд_7_x7C_174-142" class="st1" d="M765,1479.9c-154-107.9-283.6-239.5-387.1-379.6"/>
			<path id="Ряд_6_x7C_152-124" class="st1" d="M746.3,1429.7C611,1329.1,495.8,1210,402.6,1083.4"/>
			<path id="Ряд_5_x7C_150-122" class="st1" d="M763.3,1405.2c-132.2-98.3-245-214.6-336.1-338.6"/>
			<path id="Ряд_4_x7C_144-117" class="st1" d="M780.3,1380.7c-129.2-96.1-239.6-209.6-328.4-330.9"/>
			<path id="Ряд_3_x7C_142-117" class="st1" d="M797.3,1356.2c-126.1-93.9-234.1-204.5-320.7-323.3"/>
			<path id="Ряд_2_x7C_137-112" class="st1" d="M814.3,1331.7c-123-91.6-228.6-199.5-313.1-315.6"/>
			<path id="Ряд_1_x7C_121-98" class="st1" d="M803.9,1284.5c-108.2-84.7-202-180.5-277.9-285.3"/>
			<path id="Контур_5_" class="st2" d="M599.5,1752.5l-16.4-11.5c-169.8-118.6-327.5-273.8-468.9-461.1l-12.6-16.7
				l428.2-292.3l11.4,15.9c38.4,53.8,90.7,114.1,147.1,170c63.1,62.5,129.1,117.1,190.8,157.8l17.1,11.3L599.5,1752.5z"/>
		</g>
		<g id="ВХОД">
			<g id="Вход_3">
				<line class="st7" x1="2571.2" y1="1411.6" x2="2556.8" y2="1391.1"/>
				<polyline class="st7" points="2564.6,1391.8 2556.3,1390.3 2554.8,1398.7 				"/>
				<polyline class="st7" points="2571.5,1400.8 2574.8,1398.5 2585.7,1414.1 2568.5,1426.1 2557.6,1410.5 2560.9,1408.2 				"/>
			</g>
			<g id="Вход_7">
				<line class="st7" x1="3356.7" y1="1297.6" x2="3336.7" y2="1282.7"/>
				<polyline class="st7" points="3344.3,1280.9 3335.9,1282.1 3337.1,1290.5 				"/>
				<polyline class="st7" points="3353.7,1287.3 3356.1,1284 3371.3,1295.4 3358.8,1312.2 3343.6,1300.9 3346,1297.7 				"/>
			</g>
			<g id="Вход_6">
				<line class="st7" x1="2841.6" y1="1797.5" x2="2827.3" y2="1777"/>
				<polyline class="st7" points="2835.1,1777.7 2826.7,1776.2 2825.3,1784.6 				"/>
				<polyline class="st7" points="2842,1786.7 2845.3,1784.4 2856.2,1800 2839,1812 2828.1,1796.5 2831.4,1794.2 				"/>
			</g>
			<g id="Вход_2">
				<line class="st7" x1="837" y1="1411.6" x2="851.4" y2="1391.1"/>
				<polyline class="st7" points="843.6,1391.8 851.9,1390.3 853.4,1398.7 				"/>
				<polyline class="st7" points="836.7,1400.8 833.4,1398.5 822.5,1414.1 839.7,1426.1 850.6,1410.5 847.3,1408.2 				"/>
			</g>
			<g id="Вход_1">
				<line class="st7" x1="1704.2" y1="1692" x2="1704.2" y2="1667"/>
				<polyline class="st7" points="1698.2,1672 1704.2,1666 1710.2,1672 				"/>
				<polyline class="st7" points="1697.7,1683.4 1693.7,1683.4 1693.7,1702.4 1714.7,1702.4 1714.7,1683.4 1710.7,1683.4 				"/>
			</g>
			<g id="Вход_4">
				<line class="st7" x1="1704.2" y1="2158" x2="1704.2" y2="2133"/>
				<polyline class="st7" points="1698.2,2138 1704.2,2132 1710.2,2138 				"/>
				<polyline class="st7" points="1697.7,2149.4 1693.7,2149.4 1693.7,2168.4 1714.7,2168.4 1714.7,2149.4 1710.7,2149.4 				"/>
			</g>
			<g id="Вход_5">
				<line class="st7" x1="2260.2" y1="2077.9" x2="2253.7" y2="2053.8"/>
				<polyline class="st7" points="2249.2,2060.2 2253.5,2052.9 2260.8,2057.1 				"/>
				<polyline class="st7" points="2251.7,2071.3 2247.8,2072.3 2252.8,2090.7 2273,2085.3 2268.1,2066.9 2264.2,2068 				"/>
			</g>
			<g id="Вход_2_3_">
				<line class="st7" x1="567.1" y1="1797.5" x2="581.4" y2="1777"/>
				<polyline class="st7" points="573.6,1777.7 582,1776.2 583.5,1784.6 				"/>
				<polyline class="st7" points="566.7,1786.7 563.4,1784.4 552.5,1800 569.7,1812 580.6,1796.5 577.3,1794.2 				"/>
			</g>
			<g id="Вход_1_5_">
				<line class="st7" x1="52" y1="1297.6" x2="72.1" y2="1282.7"/>
				<polyline class="st7" points="64.4,1280.9 72.8,1282.1 71.6,1290.5 				"/>
				<polyline class="st7" points="55,1287.3 52.6,1284 37.4,1295.4 49.9,1312.2 65.2,1300.9 62.8,1297.7 				"/>
			</g>
			<g id="Вход_3_4_">
				<line class="st7" x1="1148.5" y1="2077.9" x2="1155" y2="2053.8"/>
				<polyline class="st7" points="1159.5,2060.2 1155.2,2052.9 1147.9,2057.1 				"/>
				<polyline class="st7" points="1157,2071.3 1160.9,2072.3 1156,2090.7 1135.7,2085.3 1140.6,2066.9 1144.5,2068 				"/>
			</g>
		</g>
		<rect x="1625.8" y="1555" class="st4" width="156.9" height="19.6"/>
		<text id="Легенда_4_" transform="matrix(1 0 0 1 1682.5864 1563.5676)" class="st5 st6">Балкон</text>
	</g>
	<g id="БЕЛЬЭТАЖ">
		<g id="Бельэтаж_1">
			<path id="Ряд_8_x7C_143-118" class="st1" d="M911.1,1268.2c-92-65.7-168.5-138.5-223.7-197.9
				c-55.1-59.3-88.7-106.1-96.1-116.6"/>
			<path id="Ряд_7_x7C_139-114" class="st1" d="M927.3,1245c-90.5-64.6-165.3-135.8-219.2-193.8
				c-53.2-57.2-85.8-102.3-93.6-113.3"/>
			<path id="Ряд_6_x7C_137-113" class="st1" d="M943.5,1221.7c-88.9-63.4-162.1-133-214.7-189.6c-51.4-55.3-83-98.7-91.1-110.1"
				/>
			<path id="Ряд_5_x7C_133-109" class="st1" d="M959.7,1198.5c-87.4-62.3-158.9-130.3-210.2-185.5
				c-49.6-53.3-80.2-95.1-88.6-106.8"/>
			<path id="Ряд_4_x7C_131-108" class="st1" d="M975.9,1175.2C890,1114,820.2,1047.6,770.2,993.9
				c-47.9-51.4-77.5-91.5-86.1-103.5"/>
			<path id="Ряд_3_x7C_127-105" class="st1" d="M992.1,1151.9c-84.4-60.1-152.5-124.8-201.2-177.1
				c-46.1-49.5-74.8-88.1-83.6-100.3"/>
			<path id="Ряд_2_x7C_125-103" class="st1" d="M1008.3,1128.7c-82.9-59-149.3-122.1-196.7-173c-42.7-45.8-71-83.2-81.1-97"/>
			<path id="Ряд_1_x7C_121-99" class="st1" d="M1025.1,1104.5C871.4,995.2,775.4,872.2,753.8,842.8"/>
			<path id="Контур_13_" class="st2" d="M757.8,815.3c24.2,34.3,66.5,82,67.6,83.2c76.8,86.4,156.4,150.2,211.2,189.3
				l16.1,11.5l-136.2,196l-16.5-11.6c-196.6-138.5-305.1-289.3-324.9-318.1l-0.3-0.5l-11.5-16.5l16.6-11.4L757.8,815.3z"/>
		</g>
		<g id="Бельэтаж_2">
			<path id="Ряд_8_x7C_117-94" class="st1" d="M1295.3,1455c-55.5-17.4-115.4-39.1-179.6-70c-59.9-28.9-118.6-58.8-171.7-94"/>
			<path id="Ряд_7_x7C_113-91" class="st1" d="M960.3,1267.7c51.1,34.1,106.6,65.5,165.8,91.2c63,27.4,121.8,51.5,176.7,68.9"/>
			<path id="Ряд_6_x7C_112-90" class="st1" d="M976.5,1244.4c49.2,32.8,102.7,63.2,159.8,88.3c61.6,27.2,119.5,50.8,173.7,67.9"
				/>
			<path id="Ряд_5_x7C_108-87" class="st1" d="M1317.4,1373.5c-53.6-16.9-110.7-39.8-170.8-66.9c-55.1-24.6-106.5-54-153.9-85.4"
				/>
			<path id="Ряд_4_x7C_107-86" class="st1" d="M1324.8,1346.3c-52.9-16.7-109.2-39-167.9-65.9c-53-24.1-102.5-52.4-148-82.6"/>
			<path id="Ряд_3_x7C_104-84" class="st1" d="M1025.1,1174.6c43.6,28.9,91.1,56.2,142.1,79.7c57.2,26.7,112.7,48.5,165,64.9"/>
			<path id="Ряд_2_x7C_102-82" class="st1" d="M1041.3,1151.3c41.8,27.7,87.2,53.9,136.1,76.8c55.8,26.6,110.4,47.7,162,63.8"/>
			<path id="Ряд_1_x7C_98-79" class="st1" d="M1346.9,1264.8c-51-15.9-104.8-36.4-159.1-62.8c-46.8-22.3-89.7-48.4-129.6-74.8"/>
			<path id="Контур_12_" class="st2" d="M1308.4,1479.9l-19.6-5.9c-76-22.8-146.8-51-210.4-83.9
				c-49.2-24.5-97.9-52.5-144.6-83.5l-17.1-11.3l136.8-195.6l16.3,10.8c50.8,33.8,103.2,63.1,155.9,87
				c38.5,17.5,81.1,33.2,126.8,46.7l18.8,5.6L1308.4,1479.9z"/>
		</g>
		<g id="Бельэтаж_3">
			<path id="Ряд_8_x7C_93-73" class="st1" d="M1333.7,1466.3c182.8,50.2,352.5,52.2,352.5,52.2"/>
			<path id="Ряд_7_x7C_90-71" class="st1" d="M1341.1,1439.1c181.1,49.8,345.3,51,345.3,51"/>
			<path id="Ряд_6_x7C_89-70" class="st1" d="M1348.4,1411.9c179.3,49.3,338,49.8,338,49.8"/>
			<path id="Ряд_5_x7C_86-68" class="st1" d="M1355.8,1384.8c177.6,48.9,330.7,48.7,330.7,48.7"/>
			<path id="Ряд_4_x7C_85-67" class="st1" d="M1363.2,1357.6c175.8,48.5,323.4,47.5,323.4,47.5"/>
			<path id="Ряд_3_x7C_83-65" class="st1" d="M1370.5,1330.4c174.1,48,316.1,46.3,316.1,46.3"/>
			<path id="Ряд_2_x7C_81-64" class="st1" d="M1377.9,1303.3c172.3,47.6,308.8,45.1,308.8,45.1"/>
			<path id="Ряд_1_x7C_78-61" class="st1" d="M1385.7,1274.4c173.3,42.7,301,45.6,301,45.6"/>
			<path id="Контур_11_" class="st2" d="M1702.7,1300.4l-15.4-0.4c-1.4,0-140.8-4.4-296.9-45.1l-19.1-5l-62.9,230l18.7,5
				c193.6,52.2,352.4,53.5,359.1,53.6l16.6,0.1V1300.4z"/>
		</g>
		<g id="Бельэтаж_4">
			<path id="Ряд_8_x7C_72-51" class="st1" d="M2071.8,1466.3c-182.8,50.2-352.5,52.2-352.5,52.2"/>
			<path id="Ряд_7_x7C_70-50" class="st1" d="M2064.4,1439.1c-181.1,49.8-345.3,51-345.3,51"/>
			<path id="Ряд_6_x7C_69-49" class="st1" d="M2057.1,1411.9c-179.3,49.3-338,49.8-338,49.8"/>
			<path id="Ряд_5_x7C_67-48" class="st1" d="M2049.7,1384.8c-177.6,48.9-330.7,48.7-330.7,48.7"/>
			<path id="Ряд_4_x7C_66-47" class="st1" d="M2042.3,1357.6c-175.8,48.5-323.4,47.5-323.4,47.5"/>
			<path id="Ряд_3_x7C_64-45" class="st1" d="M2035,1330.4c-174.1,48-316.1,46.3-316.1,46.3"/>
			<path id="Ряд_2_x7C_63-45" class="st1" d="M2027.6,1303.3c-172.3,47.6-308.8,45.1-308.8,45.1"/>
			<path id="Ряд_1_x7C_60-43" class="st1" d="M2019.8,1274.4c-173.3,42.7-301,45.6-301,45.6"/>
			<path id="Контур_10_" class="st2" d="M1702.7,1300.4l15.4-0.4c1.4,0,140.8-4.4,296.9-45.1l19.1-5l62.9,230l-18.7,5
				c-193.6,52.2-352.4,53.5-359.1,53.6l-16.6,0.1V1300.4z"/>
		</g>
		<g id="Бельэтаж_5">
			<path id="Ряд_8_x7C_50-28" class="st1" d="M2110.2,1455c55.5-17.4,115.4-39.1,179.6-70c59.9-28.9,118.6-58.8,171.7-94"/>
			<path id="Ряд_7_x7C_49-28" class="st1" d="M2445.2,1267.7c-51.1,34.1-106.6,65.5-165.8,91.2c-63,27.4-121.8,51.5-176.7,68.9"
				/>
			<path id="Ряд_6_x7C_48-27" class="st1" d="M2429,1244.4c-49.2,32.8-102.7,63.2-159.8,88.3c-61.6,27.2-119.5,50.8-173.7,67.9"
				/>
			<path id="Ряд_5_x7C_47-26" class="st1" d="M2088.1,1373.5c53.6-16.9,110.7-39.8,170.8-66.9c55.1-24.6,106.5-54,153.9-85.4"/>
			<path id="Ряд_4_x7C_46-26" class="st1" d="M2080.7,1346.3c52.9-16.7,109.2-39,167.9-65.9c53-24.1,102.5-52.4,148-82.6"/>
			<path id="Ряд_3_x7C_44-25" class="st1" d="M2380.4,1174.6c-43.6,28.9-91.1,56.2-142.1,79.7c-57.2,26.7-112.7,48.5-165,64.9"/>
			<path id="Ряд_2_x7C_44-25" class="st1" d="M2364.2,1151.3c-41.8,27.7-87.2,53.9-136.1,76.8c-55.8,26.6-110.4,47.7-162,63.8"/>
			<path id="Ряд_1_x7C_42-24" class="st1" d="M2058.6,1264.8c51-15.9,104.8-36.4,159.1-62.8c46.8-22.3,89.7-48.4,129.6-74.8"/>
			<path id="Контур_9_" class="st2" d="M2097.1,1479.9l19.6-5.9c76-22.8,146.8-51,210.4-83.9c49.2-24.5,97.9-52.5,144.6-83.5
				l17.1-11.3l-136.8-195.6l-16.3,10.8c-50.8,33.8-103.2,63.1-155.9,87c-38.5,17.5-81.1,33.2-126.8,46.7l-18.8,5.6L2097.1,1479.9z"
				/>
		</g>
		<g id="Бельэтаж_6">
			<path id="Ряд_8_x7C_27-1" class="st1" d="M2494.4,1268.2c92-65.7,168.5-138.5,223.7-197.9c55.1-59.3,88.7-106.1,96.1-116.6"/>
			<path id="Ряд_7_x7C_27-1" class="st1" d="M2478.2,1245c90.5-64.6,165.3-135.8,219.2-193.8c53.2-57.2,85.8-102.3,93.6-113.3"/>
			<path id="Ряд_6_x7C_26-1" class="st1" d="M2461.9,1221.7c88.9-63.4,162.1-133,214.7-189.6c51.4-55.3,83-98.7,91.1-110.1"/>
			<path id="Ряд_5_x7C_25-1" class="st1" d="M2445.7,1198.5c87.4-62.3,158.9-130.3,210.2-185.5c49.6-53.3,80.2-95.1,88.6-106.8"
				/>
			<path id="Ряд_4_x7C_25-1" class="st1" d="M2429.5,1175.2c85.9-61.2,155.7-127.6,205.7-181.3c47.9-51.4,77.5-91.5,86.1-103.5"
				/>
			<path id="Ряд_3_x7C_24-1" class="st1" d="M2413.3,1151.9c84.4-60.1,152.5-124.8,201.2-177.1c46.1-49.5,74.8-88.1,83.6-100.3"
				/>
			<path id="Ряд_2_x7C_24-1" class="st1" d="M2397.1,1128.7c82.9-59,149.3-122.1,196.7-173c42.7-45.8,71-83.2,81.1-97"/>
			<path id="Ряд_1_x7C_23-1" class="st1" d="M2380.3,1104.5c153.7-109.4,249.7-232.3,271.3-261.8"/>
			<path id="Контур_7_" class="st2" d="M2647.6,815.3c-24.2,34.3-66.5,82-67.6,83.2c-76.8,86.4-156.4,150.2-211.2,189.3
				l-16.1,11.5l136.2,196l16.5-11.6c196.6-138.5,305.1-289.3,324.9-318.1l0.3-0.5l11.5-16.5l-16.6-11.4L2647.6,815.3z"/>
		</g>
		<g id="ПРАВАЯ_ЛОЖА_БЕЛЬЭТАЖА">
			<path id="Ряд_15_x7C_4-1" class="st1" d="M2571.2,860.4c0.6-0.8,1.3-1.5,1.9-2.3c12.4-14.8,25.4-31.7,36.4-46.6"/>
			<path id="Ряд_14_x7C_3-1" class="st1" d="M2586.6,795.9c-6.4,8.8-19,25.2-37.2,46.8"/>
			<path id="Ряд_13_x7C_3-1" class="st1" d="M2528.9,826c17.4-20.7,29.4-36.6,35.7-45.1"/>
			<path id="Ряд_12_x7C_3-1" class="st1" d="M2508.4,809.2c16.6-19.9,28.1-35,34.3-43.4"/>
			<path id="Ряд_11_x7C_3-1" class="st1" d="M2487.8,792.5c15.8-19,26.9-33.5,32.9-41.6"/>
			<path id="Ряд_10_x7C_3-1" class="st1" d="M2467.3,775.8c15-18.1,25.6-32,31.4-39.9"/>
			<path id="Ряд_9_x7C_3-1" class="st1" d="M2446.7,759c14.6-17.7,24.9-31.2,30.5-38.8"/>
			<path id="Ряд_8_x7C_2-1" class="st1" d="M2426,742.1c9.1-10.8,16.4-20,21.9-27.2"/>
			<path id="Ряд_7_x7C_2-1" class="st1" d="M2405.3,725.3c8.7-10.3,15.7-19,21-25.9"/>
			<path id="Ряд_6_x7C_2-1" class="st1" d="M2384.6,708.4c8.3-9.7,15-18,20.1-24.5"/>
			<path id="Ряд_5_x7C_2-1" class="st1" d="M2363.9,691.5c7.9-9.1,14.3-17,19.2-23.2"/>
			<path id="Ряд_4_x7C_2-1" class="st1" d="M2343.2,674.6c7.5-8.5,13.6-16,18.3-21.9"/>
			<path id="Ряд_3_x7C_2-1" class="st1" d="M2322.5,657.8c7.1-8,13-15,17.4-20.5"/>
			<path id="Ряд_2_x7C_1" class="st1" d="M2301.8,640.9c2.7-3,5.2-5.8,7.5-8.4"/>
			<path id="Ряд_1_x7C_1" class="st1" d="M2281.1,624.1c2.4-2.6,4.7-5.1,6.7-7.4"/>
			<path id="Контур_6_" class="st2" d="M2647.6,815.3l-349.5-242l-11,14c-7.4,9.5-15.4,18.4-24,26.8l-11.8,11.5l331.9,269.3
				C2593.7,883.1,2627.1,844.4,2647.6,815.3z"/>
			<rect x="2530.7" y="641.6" class="st4" width="292.8" height="32.4"/>
			<text id="Легенда_5_" transform="matrix(1 0 0 1 2530.7209 658.7189)" class="st5 st9">Правая ложа бельэтажа</text>
		</g>
		<g id="ЛЕВАЯ_ЛОЖА_БЕЛЬЭТАЖА_1_">
			<path id="Ряд_15_x7C_4-1_1_" class="st1" d="M834.2,860.4c-0.6-0.8-1.3-1.5-1.9-2.3c-12.4-14.8-25.4-31.7-36.4-46.6"/>
			<path id="Ряд_14_x7C_3-1_1_" class="st1" d="M818.8,795.9c6.4,8.8,19,25.2,37.2,46.8"/>
			<path id="Ряд_13_x7C_3-1_1_" class="st1" d="M876.5,826c-17.4-20.7-29.4-36.6-35.7-45.1"/>
			<path id="Ряд_12_x7C_3-1_1_" class="st1" d="M897.1,809.2c-16.6-19.9-28.1-35-34.3-43.4"/>
			<path id="Ряд_11_x7C_3-1_1_" class="st1" d="M917.6,792.5c-15.8-19-26.9-33.5-32.9-41.6"/>
			<path id="Ряд_10_x7C_3-1_1_" class="st1" d="M938.1,775.8c-15-18.1-25.6-32-31.4-39.9"/>
			<path id="Ряд_9_x7C_3-1_1_" class="st1" d="M958.7,759c-14.6-17.7-24.9-31.2-30.5-38.8"/>
			<path id="Ряд_8_x7C_2-1_1_" class="st1" d="M979.4,742.1c-9.1-10.8-16.4-20-21.9-27.2"/>
			<path id="Ряд_7_x7C_2-1_1_" class="st1" d="M1000.1,725.3c-8.7-10.3-15.7-19-21-25.9"/>
			<path id="Ряд_6_x7C_2-1_1_" class="st1" d="M1020.8,708.4c-8.3-9.7-15-18-20.1-24.5"/>
			<path id="Ряд_5_x7C_2-1_1_" class="st1" d="M1041.6,691.5c-7.9-9.1-14.3-17-19.2-23.2"/>
			<path id="Ряд_4_x7C_2-1_1_" class="st1" d="M1062.3,674.6c-7.5-8.5-13.6-16-18.3-21.9"/>
			<path id="Ряд_3_x7C_2-1_1_" class="st1" d="M1083,657.8c-7.1-8-13-15-17.4-20.5"/>
			<path id="Ряд_2_x7C_1_1_" class="st1" d="M1103.7,640.9c-2.7-3-5.2-5.8-7.5-8.4"/>
			<path id="Ряд_1_x7C_1_2_" class="st1" d="M1124.3,624.1c-2.4-2.6-4.7-5.1-6.7-7.4"/>
			<path id="Контур_8_" class="st2" d="M757.8,815.3l349.5-242l11,14c7.4,9.5,15.4,18.4,24,26.8l11.8,11.5L822.2,894.9
				C811.8,883.1,778.3,844.4,757.8,815.3z"/>
			<rect x="579.4" y="641.6" class="st4" width="292.8" height="32.4"/>
			<text id="Легенда_6_" transform="matrix(1 0 0 1 597.5742 658.7189)" class="st5 st9">Левая ложа бельэтажа</text>
		</g>
		<rect x="1625.8" y="1284" class="st4" width="156.9" height="19.6"/>
		<text id="Легенда_3_" transform="matrix(1 0 0 1 1675.2007 1292.5676)" class="st5 st6">Бельэтаж</text>
	</g>
	<path class="st7" d="M1704.2-2873"/>
</g>
</svg>
